<svg width="48" height="48" viewBox="0 0 48 48" fill="none" xmlns="http://www.w3.org/2000/svg">
<rect x="1.19751" y="1.19751" width="45.5052" height="45.5052" rx="22.7526" stroke="white" stroke-width="2.39501"/>
<mask id="mask0_103_435" style="mask-type:alpha" maskUnits="userSpaceOnUse" x="5" y="5" width="37" height="37">
<rect x="5.9873" y="5.98755" width="35.9252" height="35.9252" fill="#D9D9D9"/>
</mask>
<g mask="url(#mask0_103_435)">
<path d="M23.9487 23.9501C22.3021 23.9501 20.8926 23.3639 19.72 22.1913C18.5474 21.0188 17.9612 19.6092 17.9612 17.9626C17.9612 16.3161 18.5474 14.9065 19.72 13.7339C20.8926 12.5614 22.3021 11.9751 23.9487 11.9751C25.5953 11.9751 27.0048 12.5614 28.1774 13.7339C29.3499 14.9065 29.9362 16.3161 29.9362 17.9626C29.9362 19.6092 29.3499 21.0188 28.1774 22.1913C27.0048 23.3639 25.5953 23.9501 23.9487 23.9501ZM11.9736 35.9252V31.7339C11.9736 30.8857 12.1919 30.1061 12.6285 29.3951C13.0651 28.684 13.6452 28.1414 14.3686 27.7672C15.9154 26.9938 17.4871 26.4138 19.0838 26.0271C20.6805 25.6404 22.3021 25.447 23.9487 25.447C25.5953 25.447 27.2169 25.6404 28.8136 26.0271C30.4102 26.4138 31.9819 26.9938 33.5287 27.7672C34.2522 28.1414 34.8323 28.684 35.2689 29.3951C35.7054 30.1061 35.9237 30.8857 35.9237 31.7339V35.9252H11.9736Z" fill="white"/>
</g>
</svg>
