<svg width="34" height="32" viewBox="0 0 34 32" fill="none" xmlns="http://www.w3.org/2000/svg">
<path d="M29.75 16C29.75 16.2652 29.638 16.5196 29.4388 16.7071C29.2395 16.8947 28.9693 17 28.6875 17H7.87709L15.6267 24.2925C15.7254 24.3854 15.8037 24.4957 15.8572 24.6171C15.9106 24.7385 15.9381 24.8686 15.9381 25C15.9381 25.1314 15.9106 25.2615 15.8572 25.3829C15.8037 25.5043 15.7254 25.6146 15.6267 25.7075C15.528 25.8004 15.4108 25.8741 15.2818 25.9244C15.1528 25.9747 15.0146 26.0006 14.875 26.0006C14.7354 26.0006 14.5971 25.9747 14.4682 25.9244C14.3392 25.8741 14.222 25.8004 14.1233 25.7075L4.56076 16.7075C4.46198 16.6146 4.38361 16.5043 4.33014 16.3829C4.27667 16.2615 4.24915 16.1314 4.24915 16C4.24915 15.8686 4.27667 15.7385 4.33014 15.6171C4.38361 15.4957 4.46198 15.3854 4.56076 15.2925L14.1233 6.29251C14.3226 6.10487 14.593 5.99945 14.875 5.99945C15.1569 5.99945 15.4273 6.10487 15.6267 6.29251C15.8261 6.48015 15.9381 6.73464 15.9381 7.00001C15.9381 7.26537 15.8261 7.51987 15.6267 7.70751L7.87709 15H28.6875C28.9693 15 29.2395 15.1054 29.4388 15.2929C29.638 15.4804 29.75 15.7348 29.75 16Z" fill="black"/>
</svg>
